<svg xmlns="http://www.w3.org/2000/svg" viewBox="0 0 197.74 98" width="200" height="100">
    <defs>
        <style>.cls-1,.cls-4{fill:#4d4847;}.cls-1,.cls-3{fill-rule:evenodd;}.cls-2,.cls-3{fill:#0c9bad;}</style>
    </defs>
    <title>logo</title>
    <g id="Layer_2" data-name="Layer 2">
        <g id="Layer_1-2" data-name="Layer 1">
            <polygon class="cls-1"
                     points="30.01 54.16 10.11 74.16 11.7 74.16 11.7 77.04 15.86 77.04 30.01 62.78 30.01 54.16"/>
            <polygon class="cls-1" points="68 54.16 87.9 74.16 87.04 74.16 87.04 77.04 82.15 77.04 68 62.78 68 54.16"/>
            <path class="cls-2"
                  d="M49,98A49,49,0,1,0,14.37,83.64,48.88,48.88,0,0,0,49,98ZM79.7,79.7A43.42,43.42,0,0,1,18.3,18.3,43.42,43.42,0,0,1,79.7,79.7Z"/>
            <polygon class="cls-1"
                     points="71.83 62.78 48.95 40.01 26.18 62.78 34.8 62.78 48.95 48.63 63.21 62.78 71.83 62.78"/>
            <polygon class="cls-3" points="54.91 61.5 54.91 93.64 61.08 87.47 61.08 67.57 54.91 61.5"/>
            <polygon class="cls-3" points="43.09 61.5 43.09 93.64 36.93 87.47 36.93 67.57 43.09 61.5"/>
            <polygon class="cls-3" points="63.21 69.8 48.95 55.54 34.8 69.8 63.21 69.8"/>
            <path class="cls-4"
                  d="M117.76,51.62l-2.48-7.17h-9.16l-2.49,7.17h-3.37L109,28h3.48l8.69,23.67ZM114.46,42,110.7,31l-3.77,11Z"/>
            <path class="cls-4" d="M129.16,48.36,135.9,28h3.34l-8.31,23.67h-3.55L119.08,28h3.33Z"/>
            <path class="cls-4" d="M143.25,38.14h12.89v2.55H143.25V49h14.52v2.66H140.23V28h17.18v2.66H143.25Z"/>
            <path class="cls-4"
                  d="M162,51.62h-3V28h10.33c3.34,0,4.37.18,5.68,1.1a6.16,6.16,0,0,1,2.66,5.36c0,2.84-1.35,4.68-4.4,5.93,2.45.92,3.23,2.27,3.55,6,.35,3.9.39,4,1.24,5.28h-3.51c-.32-.78-.39-1.13-.57-3.47-.35-4-.67-4.9-2-5.79-.92-.64-1.63-.75-4.15-.75H162Zm5.07-12.38a14.47,14.47,0,0,0,4.73-.43,4.09,4.09,0,0,0,2.83-4.15A3.76,3.76,0,0,0,172.75,31a10,10,0,0,0-3.8-.39H162v8.63Z"/>
            <path class="cls-4"
                  d="M193.76,34.87c-.42-3.26-2.34-4.76-6.1-4.76-3.16,0-5.18,1.39-5.18,3.55a3,3,0,0,0,2.05,2.81A22,22,0,0,0,189,37.78c3.51.82,5,1.35,6.14,2.06a5.66,5.66,0,0,1,2.63,5c0,4.44-3.59,7.25-9.23,7.25s-9.44-3.09-10-8.42h3a6,6,0,0,0,1.6,3.69,7.83,7.83,0,0,0,5.64,2.06c3.55,0,6-1.77,6-4.36,0-1.6-.85-2.7-2.7-3.45a24.54,24.54,0,0,0-4.36-1.27c-3.37-.78-4.47-1.18-5.54-1.85a5.13,5.13,0,0,1-2.66-4.65c0-3.83,3.33-6.39,8.34-6.39,5.39,0,8.38,2.45,9,7.42Z"/>
            <path class="cls-2" d="M107.58,60.71h6.65V62h-6.65V66.3h7.49v1.37h-9V55.46h8.86v1.37h-7.3Z"/>
            <path class="cls-2"
                  d="M119.55,62.05l2.13-3.11h1.7l-3,4.14,3.46,4.59H122.1l-2.55-3.53L117,67.67h-1.71l3.47-4.59-3-4.14h1.7Z"/>
            <path class="cls-2"
                  d="M124.31,70.55V58.94h1.43v1.17a3.41,3.41,0,0,1,2.87-1.41c2.22,0,3.7,1.85,3.7,4.65s-1.48,4.56-3.73,4.56a3.32,3.32,0,0,1-2.84-1.48v4.12Zm2-9.6a3.71,3.71,0,0,0-.57,2.24,3.9,3.9,0,0,0,.7,2.6,2.45,2.45,0,0,0,2,1c1.57,0,2.5-1.3,2.5-3.46s-.89-3.45-2.47-3.45A2.53,2.53,0,0,0,126.27,61Z"/>
            <path class="cls-2"
                  d="M134.47,60.42c.9-1.24,1.67-1.76,2.62-1.76a3.36,3.36,0,0,1,.71.09v1.36a3.1,3.1,0,0,0-.71-.09,2.53,2.53,0,0,0-2.18,1.35,4.24,4.24,0,0,0-.37,2.18v4.12H133V58.94h1.43Z"/>
            <path class="cls-2"
                  d="M139.18,63.64c.16,2,1.22,3.12,2.91,3.12a2.18,2.18,0,0,0,2.27-1.71h1.45A3.62,3.62,0,0,1,142,67.91c-2.58,0-4.23-1.78-4.23-4.56s1.63-4.65,4.1-4.65a3.9,3.9,0,0,1,3.74,2.42,7,7,0,0,1,.42,2.52Zm5.34-1a2.69,2.69,0,0,0-2.65-2.73c-1.48,0-2.47,1-2.68,2.73Z"/>
            <path class="cls-2"
                  d="M152.29,61.56a1.48,1.48,0,0,0-.41-1.12,2.27,2.27,0,0,0-1.68-.57c-1.19,0-2,.48-2,1.21a.91.91,0,0,0,.5.79,6.9,6.9,0,0,0,2.08.62c2.35.53,3.24,1.28,3.24,2.69,0,1.71-1.37,2.73-3.64,2.73-2.44,0-3.85-1.13-4-3.24h1.43c.07,1.37.93,2.09,2.58,2.09,1.34,0,2.2-.59,2.2-1.49a1.07,1.07,0,0,0-.46-.89,7.38,7.38,0,0,0-2.47-.77,6.19,6.19,0,0,1-2.17-.83,2,2,0,0,1-.73-1.57c0-1.54,1.38-2.51,3.52-2.51s3.13.91,3.4,2.86Z"/>
            <path class="cls-2"
                  d="M160.2,61.56a1.48,1.48,0,0,0-.41-1.12,2.29,2.29,0,0,0-1.68-.57c-1.19,0-2,.48-2,1.21a.92.92,0,0,0,.49.79,7.13,7.13,0,0,0,2.09.62c2.35.53,3.24,1.28,3.24,2.69,0,1.71-1.37,2.73-3.64,2.73-2.44,0-3.85-1.13-4-3.24h1.43c.07,1.37.93,2.09,2.58,2.09,1.33,0,2.19-.59,2.19-1.49a1.06,1.06,0,0,0-.45-.89,7.39,7.39,0,0,0-2.48-.77,6.2,6.2,0,0,1-2.16-.83,2,2,0,0,1-.73-1.57c0-1.54,1.37-2.51,3.52-2.51s3.13.91,3.4,2.86Z"/>
            <path class="cls-2" d="M167.08,66.3h6.55v1.37h-8.11V55.46h1.56Z"/>
            <path class="cls-2" d="M177.63,67.67h-1.58V56.83h-4V55.46h9.52v1.37h-3.93Z"/>
            <path class="cls-2"
                  d="M182.14,55.46h4.09c2,0,2.8.22,3.75.95,1.38,1.06,2,2.69,2,5.13,0,4.08-1.85,6.13-5.53,6.13h-4.31Zm4.22,10.84a4.89,4.89,0,0,0,2.36-.46q1.69-1,1.7-4.38c0-2.08-.55-3.44-1.68-4.13a4.75,4.75,0,0,0-2.58-.5H183.7V66.3Z"/>
        </g>
    </g>
</svg>