<?xml version="1.0" encoding="utf-8"?>
<!-- Generator: Adobe Illustrator 22.0.1, SVG Export Plug-In . SVG Version: 6.00 Build 0)  -->
<svg version="1.1" id="Layer_1" xmlns="http://www.w3.org/2000/svg" xmlns:xlink="http://www.w3.org/1999/xlink" x="0px" y="0px"
	 viewBox="0 0 100 100" width="100" height="100" style="enable-background:new 0 0 100 100;" xml:space="preserve">
<style type="text/css">
	.st0{fill-rule:evenodd;clip-rule:evenodd;fill:#4D4847;}
	.st1{fill:#0C9BAD;}
	.st2{fill-rule:evenodd;clip-rule:evenodd;fill:#0C9BAD;}
	.st3{fill:none;}
	.st4{fill:#4D4847;}
</style>
<g>
	<polygon class="st0" points="31.4,55.1 11.9,74.7 13.5,74.7 13.5,77.5 17.5,77.5 31.4,63.5 	"/>
	<polygon class="st0" points="68.6,55.1 88.1,74.7 87.3,74.7 87.3,77.5 82.5,77.5 68.6,63.5 	"/>
	<path class="st1" d="M50,98c13.3,0,25.3-5.4,34-14.1c8.7-8.7,14.1-20.6,14.1-34c0-13.2-5.4-25.2-14.1-33.9C75.3,7.4,63.3,2,50,2
		C36.7,2,24.7,7.4,16.1,16.1C7.4,24.7,2,36.7,2,49.9c0,13.3,5.4,25.3,14.1,34C24.7,92.6,36.7,98,50,98L50,98z M80.1,80.1
		C72.4,87.7,61.7,92.5,50,92.5c-11.7,0-22.3-4.8-30-12.4C12.3,72.4,7.5,61.7,7.5,49.9c0-11.7,4.8-22.3,12.4-30
		c7.7-7.6,18.3-12.4,30-12.4c11.8,0,22.4,4.8,30.1,12.4c7.6,7.7,12.4,18.3,12.4,30C92.5,61.7,87.7,72.4,80.1,80.1L80.1,80.1z"/>
	<polygon class="st0" points="72.4,63.5 50,41.2 27.6,63.5 36.1,63.5 50,49.6 63.9,63.5 	"/>
	<polygon class="st2" points="55.8,62.2 55.8,93.7 61.8,87.7 61.8,68.2 	"/>
	<polygon class="st2" points="44.2,62.2 44.2,93.7 38.2,87.7 38.2,68.2 	"/>
	<polygon class="st3" points="47.4,85.1 47.4,93.8 41.5,93.8 41.5,91 	"/>
	<polygon class="st2" points="63.9,70.4 50,56.4 36.1,70.4 	"/>
	<g>
		<path class="st4" d="M34.1,29.5l-1.3-3.6h-4.6l-1.3,3.6h-1.7l4.4-12h1.8l4.4,12H34.1z M32.4,24.6L30.5,19l-1.9,5.6H32.4z"/>
		<path class="st4" d="M39.9,27.8l3.4-10.3H45l-4.2,12H39l-4.2-12h1.7L39.9,27.8z"/>
		<path class="st4" d="M47,22.7h6.5V24H47v4.2h7.4v1.3h-8.9v-12h8.7v1.4H47V22.7z"/>
		<path class="st4" d="M56.5,29.5H55v-12h5.2c1.7,0,2.2,0.1,2.9,0.6c0.9,0.6,1.3,1.5,1.3,2.7c0,1.4-0.7,2.4-2.2,3
			c1.2,0.5,1.6,1.2,1.8,3c0.2,2,0.2,2.1,0.6,2.7h-1.8c-0.2-0.4-0.2-0.6-0.3-1.8c-0.2-2-0.3-2.5-1-2.9c-0.5-0.3-0.8-0.4-2.1-0.4h-3
			V29.5z M59.1,23.2c1.4,0,1.9-0.1,2.4-0.2c0.9-0.3,1.4-1.1,1.4-2.1c0-0.9-0.4-1.6-1-1.9c-0.3-0.1-0.8-0.2-1.9-0.2h-3.5v4.4H59.1z"
			/>
		<path class="st4" d="M72.6,21c-0.2-1.7-1.2-2.4-3.1-2.4c-1.6,0-2.6,0.7-2.6,1.8c0,0.6,0.3,1.1,1,1.4c0.4,0.2,0.9,0.4,2.2,0.7
			c1.8,0.4,2.6,0.7,3.1,1c0.9,0.6,1.3,1.4,1.3,2.5c0,2.2-1.8,3.7-4.7,3.7c-2.9,0-4.8-1.6-5.1-4.3h1.5c0.1,0.9,0.4,1.4,0.8,1.9
			c0.6,0.7,1.7,1,2.9,1c1.8,0,3-0.9,3-2.2c0-0.8-0.4-1.4-1.4-1.7c-0.5-0.2-1-0.4-2.2-0.6c-1.7-0.4-2.3-0.6-2.8-0.9
			c-0.9-0.6-1.3-1.3-1.3-2.4c0-1.9,1.7-3.2,4.2-3.2c2.7,0,4.2,1.2,4.6,3.8H72.6z"/>
	</g>
	<g>
		<path class="st1" d="M29,35.1h3.4v0.7H29v2.2h3.8v0.7h-4.6v-6.2h4.5v0.7H29V35.1z"/>
		<path class="st1" d="M35.1,35.8l1.1-1.6h0.9l-1.5,2.1l1.8,2.3h-0.9l-1.3-1.8l-1.3,1.8H33l1.8-2.3l-1.5-2.1h0.9L35.1,35.8z"/>
		<path class="st1" d="M37.5,40.1v-5.9h0.7v0.6c0.4-0.5,0.8-0.7,1.5-0.7c1.1,0,1.9,0.9,1.9,2.4c0,1.4-0.8,2.3-1.9,2.3
			c-0.6,0-1-0.2-1.4-0.8v2.1H37.5z M38.5,35.2c-0.2,0.3-0.3,0.6-0.3,1.1c0,0.6,0.1,1,0.4,1.3c0.2,0.3,0.6,0.5,1,0.5
			c0.8,0,1.3-0.7,1.3-1.8c0-1.1-0.5-1.7-1.3-1.7C39.2,34.7,38.8,34.9,38.5,35.2z"/>
		<path class="st1" d="M42.7,35c0.5-0.6,0.8-0.9,1.3-0.9c0.1,0,0.2,0,0.4,0v0.7c-0.2,0-0.3,0-0.4,0c-0.4,0-0.9,0.3-1.1,0.7
			c-0.1,0.3-0.2,0.5-0.2,1.1v2.1H42v-4.4h0.7V35z"/>
		<path class="st1" d="M45.1,36.6c0.1,1,0.6,1.6,1.5,1.6c0.6,0,1-0.3,1.2-0.9h0.7c-0.3,1-0.9,1.4-1.9,1.4c-1.3,0-2.1-0.9-2.1-2.3
			c0-1.4,0.8-2.4,2.1-2.4c0.9,0,1.6,0.5,1.9,1.2c0.1,0.3,0.2,0.7,0.2,1.3H45.1z M47.8,36.1c-0.1-0.8-0.6-1.4-1.3-1.4
			c-0.8,0-1.3,0.5-1.4,1.4H47.8z"/>
		<path class="st1" d="M51.7,35.5c0-0.3-0.1-0.4-0.2-0.6c-0.2-0.2-0.5-0.3-0.9-0.3c-0.6,0-1,0.2-1,0.6c0,0.2,0.1,0.3,0.3,0.4
			c0.2,0.1,0.4,0.2,1.1,0.3c1.2,0.3,1.6,0.7,1.6,1.4c0,0.9-0.7,1.4-1.8,1.4c-1.2,0-2-0.6-2-1.6h0.7c0,0.7,0.5,1.1,1.3,1.1
			c0.7,0,1.1-0.3,1.1-0.8c0-0.2-0.1-0.4-0.2-0.5c-0.2-0.1-0.3-0.2-1.3-0.4c-0.5-0.1-0.9-0.3-1.1-0.4c-0.2-0.2-0.4-0.5-0.4-0.8
			c0-0.8,0.7-1.3,1.8-1.3c1,0,1.6,0.5,1.7,1.4H51.7z"/>
		<path class="st1" d="M55.7,35.5c0-0.3-0.1-0.4-0.2-0.6c-0.2-0.2-0.5-0.3-0.9-0.3c-0.6,0-1,0.2-1,0.6c0,0.2,0.1,0.3,0.3,0.4
			c0.2,0.1,0.4,0.2,1.1,0.3c1.2,0.3,1.6,0.7,1.6,1.4c0,0.9-0.7,1.4-1.8,1.4c-1.2,0-2-0.6-2-1.6h0.7c0,0.7,0.5,1.1,1.3,1.1
			c0.7,0,1.1-0.3,1.1-0.8c0-0.2-0.1-0.4-0.2-0.5c-0.2-0.1-0.3-0.2-1.3-0.4c-0.5-0.1-0.9-0.3-1.1-0.4c-0.2-0.2-0.4-0.5-0.4-0.8
			c0-0.8,0.7-1.3,1.8-1.3c1,0,1.6,0.5,1.7,1.4H55.7z"/>
		<path class="st1" d="M59.2,37.9h3.3v0.7h-4.1v-6.2h0.8V37.9z"/>
		<path class="st1" d="M64.6,38.6h-0.8v-5.5h-2v-0.7h4.8v0.7h-2V38.6z"/>
		<path class="st1" d="M66.9,32.4h2.1c1,0,1.4,0.1,1.9,0.5c0.7,0.5,1,1.4,1,2.6c0,2.1-0.9,3.1-2.8,3.1h-2.2V32.4z M69,37.9
			c0.5,0,0.9-0.1,1.2-0.2c0.6-0.3,0.9-1.1,0.9-2.2c0-1.1-0.3-1.7-0.9-2.1c-0.3-0.2-0.7-0.3-1.3-0.3h-1.2v4.8H69z"/>
	</g>
</g>
</svg>
